# xmcd
#
# Track frame offsets:
#	150
#	5879
#	11367
#	18308
#	28638
#	54675
#	62164
#	70913
#	93665
#	109143
#	115166
#	120545
#	129217
#	139430
#	166164
#	196183
#	214847
#
# Disc length: 4031 seconds
#
# Revision: 1
# Processed by: cddbd v1.5.2PL0 Copyright (c) Steve Scherf et al.
# Submitted via: EZCDAudioConverter 7.0.6.1
#
DISCID=ed0fbd11
DTITLE=Pink Floyd - The Early Years 1970 Devi/ation 2/2
DYEAR=2016
DGENRE=
TTITLE0=On The Highway
TTITLE1=Auto Scene [Version 2]
TTITLE2=Auto Scene [Version 3]
TTITLE3=Aeroplane
TTITLE4=Explosion
TTITLE5=The Riot Scene
TTITLE6=Looking At Map
TTITLE7=Love Scene [Version 7]
TTITLE8=Love Scene [Version 1]
TTITLE9=Take Off
TTITLE10=Take Off [Version 2]
TTITLE11=Love Scene [Version 2]
TTITLE12=Love Scene [Take 1]
TTITLE13=Unknown Song [Take 1]
TTITLE14=Love Scene [Take 2]
TTITLE15=Crumbling Land [Take 1]
TTITLE16=Atom Heart Mother [Early Studio Version, Band Only]
EXTD=
EXTT0=
EXTT1=
EXTT2=
EXTT3=
EXTT4=
EXTT5=
EXTT6=
EXTT7=
EXTT8=
EXTT9=
EXTT10=
EXTT11=
EXTT12=
EXTT13=
EXTT14=
EXTT15=
EXTT16=
PLAYORDER=
